<svg width="308" height="340" viewBox="0 0 308 340" fill="none" xmlns="http://www.w3.org/2000/svg">
<path d="M283.729 186.75C295.491 169.842 302.592 150.133 304.317 129.608C306.041 109.083 302.329 88.4663 293.552 69.8323C284.776 51.1983 271.246 35.2051 254.324 23.4624C237.402 11.7197 217.685 4.6419 197.158 2.94152C176.631 1.24114 156.018 4.97814 137.395 13.7764C118.771 22.5746 102.794 36.1236 91.0709 53.0595C79.3482 69.9954 72.2937 89.7206 70.6175 110.25C68.9413 130.778 72.7025 151.387 81.5227 170" stroke="#1E1E1E" stroke-width="5" stroke-linecap="round" stroke-linejoin="round"/>
<path d="M187.5 69.5C168.991 69.5 154 80.756 154 94.625C154 108.494 168.991 119.75 187.5 119.75C206.009 119.75 221 131.006 221 144.875C221 158.744 206.009 170 187.5 170M187.5 69.5C202.073 69.5 214.501 76.4847 219.09 86.25M187.5 69.5V52.75M187.5 170C172.927 170 160.499 163.015 155.91 153.25M187.5 170V186.75M3.25 203.5H43.3662C48.2907 203.5 53.1483 204.606 57.5535 206.75L91.757 223.299C96.1623 225.426 101.02 226.531 105.961 226.531H123.414C140.298 226.531 154 239.781 154 256.129C154 256.799 153.548 257.368 152.895 257.552L110.333 269.328C102.696 271.437 94.552 270.699 87.4187 267.25L50.8535 249.562M154 245.375L230.933 221.741C237.63 219.686 244.806 219.799 251.436 222.064C258.065 224.329 263.81 228.63 267.85 234.354C274.031 242.896 271.518 255.157 262.507 260.349L136.63 332.994C132.694 335.272 128.336 336.724 123.82 337.262C119.305 337.801 114.727 337.414 110.366 336.126L3.25 304.335" stroke="#1E1E1E" stroke-width="5" stroke-linecap="round" stroke-linejoin="round"/>
</svg>
