<?xml version="1.0" encoding="UTF-8"?>
<svg id="Layer_2" data-name="Layer 2" xmlns="http://www.w3.org/2000/svg" viewBox="0 0 137.48 153.67">
  <defs>
    <style>
      .cls-1 {
        fill:#f9ac68;
        stroke-width: 0px;
      }
    </style>
  </defs>
  <g id="Layer_2-2" data-name="Layer 2">
    <path class="cls-1" d="M137.48.37c-5.06,4.7-10.51,9.07-15.15,14.23-5.88,6.54-8.39,14.92-8.62,23.72-.22,8.4-.13,16.9.9,25.21,2.9,23.48-1.8,44.37-17.56,62.06-9.66,10.84-21.58,16.74-35.53,19.05-14.21,2.36-28.33,5.37-42.5,8.02-2.81.52-5.68.69-8.53.99-.51.05-1.03.01-1.54-.03-3.6-.34-7.37-5.27-8.44-11.03-1.19-6.45-.52-8.36,3.8-10.74.99-.55,1.94-1.27,3-1.58,15-4.38,22.24-16.51,27.71-30.25,5.32-13.35,7.78-27.5,10.36-41.62,1.89-10.35,4.11-20.62,8.95-30.03,7.95-15.47,20.45-24.2,36.95-27,12.43-2.12,24.92-1.18,37.41-1,3.05.04,6.1,0,8.76,0ZM68.7,24.9c-2.55,5.15-4.98,10.06-7.42,14.97,4.83-1.65,8.89-4.51,14.01-3.58-.34,3.12-.66,5.98-1.04,9.41,2.41-2,4.29-3.56,6.33-5.24.63,1.89,1.14,3.41,1.68,5.04,1.24-.82,2.15-1.43,3.87-2.58v15.09c7.03-4.65,12.82-9.85,16.77-17.05,1.22.38,2.26.7,3.92,1.21-1.54-16.13,6.39-27.12,17.4-36.66-1.33-.36-2.4-.41-3.47-.35-6.43.39-12.89.53-19.27,1.29-10.3,1.23-20.34,3.69-29.32,9.41-2.6,1.66-4.84,3.92-7.5,6.11,1.76,1.27,2.84,2.05,4.05,2.93Z"/>
  </g>
</svg>