<?xml version="1.0" encoding="UTF-8" standalone="no"?>
<!-- Created with Inkscape (http://www.inkscape.org/) -->

<svg
   width="224"
   height="231"
   viewBox="0 0 59.266665 61.11875"
   version="1.1"
   id="svg1973"
   sodipodi:docname="placeholder-cat.svg"
   inkscape:version="1.2.2 (b0a8486541, 2022-12-01)"
   xmlns:inkscape="http://www.inkscape.org/namespaces/inkscape"
   xmlns:sodipodi="http://sodipodi.sourceforge.net/DTD/sodipodi-0.dtd"
   xmlns="http://www.w3.org/2000/svg"
   xmlns:svg="http://www.w3.org/2000/svg">
  <sodipodi:namedview
     id="namedview1975"
     pagecolor="#505050"
     bordercolor="#eeeeee"
     borderopacity="1"
     inkscape:showpageshadow="0"
     inkscape:pageopacity="0"
     inkscape:pagecheckerboard="0"
     inkscape:deskcolor="#505050"
     inkscape:document-units="mm"
     showgrid="false"
     inkscape:zoom="2.7116173"
     inkscape:cx="134.9748"
     inkscape:cy="92.933467"
     inkscape:window-width="1860"
     inkscape:window-height="1055"
     inkscape:window-x="60"
     inkscape:window-y="0"
     inkscape:window-maximized="1"
     inkscape:current-layer="layer1" />
  <defs
     id="defs1970" />
  <g
     inkscape:label="Layer 1"
     inkscape:groupmode="layer"
     id="layer1"
     transform="translate(-51.489093,29.665901)">
    <rect
       style="display:block;fill:#3a3e59;fill-opacity:1;stroke-width:0.955532;stroke-linecap:round;stroke-linejoin:round;paint-order:stroke fill markers"
       id="rect3417"
       width="59.266666"
       height="61.118752"
       x="51.489094"
       y="-29.665901"
       ry="0.24355169"
       inkscape:label="rect3417" />
    <g
       id="9xTyjNXTif"
       style="display:block"
       transform="matrix(0.21495068,0,0,0.21495068,93.354702,-82.471342)"
       opacity="1">
      <g
         id="Mb9gzYQY3A"
         opacity="1">
        <g
           id="Tyr75rMJ2L"
           opacity="1">
          <path
             id="nQvMSheyBc"
             fill="#f58c32"
             fill-opacity="1"
             d="m 4.1020002,510.58499 c 18.9800008,-13.32098 12.4609998,-23.95398 -10.466,-41.80798 0,0 -5.3730002,11.811 -5.3730002,11.811 25.21,8.13199 12.43799998,23.43299 -6.338001,26.90299 -18.777,3.47101 -76.422001,5.13699 -91.445999,2.31201 -10.869,-2.043 -26.87699,-5.32501 -28.89199,3.43301 4.66099,2.60999 14.46799,6.35401 33.34199,7.41498 29.844003,1.677 88.668,4.32501 109.1730002,-10.06601 z" />
        </g>
        <g
           id="DH5-SQYCDr"
           opacity="1">
          <path
             id="54Pg5g805j"
             fill="#ef7c21"
             fill-opacity="1"
             d="m -1.11,457.22699 c 0,0 -5.2539998,11.55002 -5.2539998,11.55002 22.9269998,17.854 29.4460008,28.487 10.466,41.80798 C -16.403,524.97601 -75.226997,522.328 -105.071,520.651 c -18.874,-1.06097 -28.681,-4.80499 -33.34199,-7.41498 -0.34501,1.50098 -0.28202,3.35199 0.28999,5.62598 3.916,15.54797 111.165999,12.31097 131.346,5.38397 20.18,-6.927 31.586999,-15.64798 31.586999,-31.61096 0,-15.96301 -24.02399899,-34.17502 -25.919999,-35.40802 z" />
        </g>
      </g>
      <g
         id="wFOAWC5QtR"
         opacity="1">
        <g
           id="ouIj5h7vOK"
           opacity="1">
          <path
             id="A7o45WnM6e"
             fill="#b03a25"
             fill-opacity="1"
             d="m -124.915,459.38901 c 0,28.35898 28.723998,47.89099 64.157001,47.89099 0,0 0,-115.52301 0,-115.52301 -35.433003,0 -64.157001,39.272 -64.157001,67.63202 z" />
        </g>
        <g
           id="vTp3ZAzYiU"
           opacity="1">
          <path
             id="DI52UsfPdV"
             fill="#da4825"
             fill-opacity="1"
             d="m -61.303001,391.75699 c 0,0 0,115.52301 0,115.52301 35.434002,0 64.158001,-19.53201 64.158001,-47.89099 0,-28.36002 -28.723999,-67.63202 -64.158001,-67.63202 z" />
        </g>
      </g>
      <g
         id="sNwEn-Q394"
         opacity="1">
        <g
           id="NqLVzNXjqH"
           opacity="1">
          <path
             id="WWznCdDhFX"
             fill="#b03a25"
             fill-opacity="1"
             d="m -82.342003,498.51501 c 0,4.84 -5.441994,8.76499 -12.154999,8.76499 -6.712998,0 -12.154998,-3.92499 -12.154998,-8.76499 0,-4.84002 5.442,-8.764 12.154998,-8.764 6.713005,0 12.154999,3.92398 12.154999,8.764 z" />
        </g>
        <g
           id="DX2sc-fu-n"
           opacity="1">
          <path
             id="GDSaOWOqMY"
             fill="#da4825"
             fill-opacity="1"
             d="m -18.569,498.51501 c 0,4.84 -5.441,8.76499 -12.155001,8.76499 -6.712999,0 -12.155001,-3.92499 -12.155001,-8.76499 0,-4.84002 5.442002,-8.764 12.155001,-8.764 6.714001,0 12.155001,3.92398 12.155001,8.764 z" />
        </g>
      </g>
      <g
         id="B0HFGDvy2l"
         opacity="1">
        <g
           id="Ch_UNOLPJM"
           opacity="1">
          <path
             id="D_aQ_oIf5i"
             fill="#ef7c21"
             fill-opacity="1"
             d="m -61.573002,342.51599 c -24.023998,0 -43.497998,21.521 -43.497998,48.06802 0,1.612 0.073,3.16199 0.213,4.655 1.862,35.021 12.223997,69.11899 13.539,104.19999 0.008,1.59701 0.350998,3.11001 0.963997,4.48101 0,0 22.463005,0 22.463005,0 0.861,-1.958 1.134994,-4.186 0.684997,-6.471 -3.837997,-23.431 -3.533996,-47.09601 -4.510002,-70.689 3.255005,0.45398 6.651001,0.67398 10.144001,0.67398 0.09,0 0.18,-0.003 0.270001,-0.003 0,0 0,-84.91101 0,-84.91101 -0.09,0 -0.180001,-0.004 -0.270001,-0.004 z" />
        </g>
        <g
           id="OM2zm-eXJW"
           opacity="1">
          <path
             id="UKJRzj67gP"
             fill="#f58c32"
             fill-opacity="1"
             d="m -18.075001,390.58401 c 0,-26.44702 -19.329998,-47.90301 -43.228,-48.06402 0,0 0,84.91101 0,84.91101 3.421001,-0.011 6.747001,-0.23199 9.937,-0.67999 -0.975998,23.59597 -0.671997,47.264 -4.510998,70.698 -0.450001,2.285 -0.174999,4.513 0.685997,6.471 0,0 22.463001,0 22.463001,0 0.614003,-1.371 0.956002,-2.884 0.964001,-4.48101 1.355,-36.17499 12.334,-71.306 13.688999,-107.48099 -9.99e-4,-0.108 0,-1.02002 0,-1.374 z" />
        </g>
        <g
           id="rcVBe2hOB9"
           opacity="1">
          <g
             id="c0h8pswLxy"
             opacity="1">
            <path
               id="aaTwKAzFvJ"
               fill="#f0efef"
               fill-opacity="1"
               d="m -78.041,388.63199 c 0,11.39502 7.494003,20.63202 16.737999,20.63202 0,0 0,-41.26401 0,-41.26401 -9.243996,0 -16.737999,9.237 -16.737999,20.63199 z" />
          </g>
          <g
             id="IaxuwCy2av"
             opacity="1">
            <path
               id="IOXpM_ByHG"
               fill="#ffffff"
               fill-opacity="1"
               d="m -61.303001,368 c 0,0 0,41.26401 0,41.26401 9.244003,0 16.738002,-9.237 16.738002,-20.63202 C -44.564999,377.237 -52.058998,368 -61.303001,368 Z" />
          </g>
        </g>
      </g>
      <g
         id="TN0GkfWGAG"
         opacity="1">
        <g
           id="ngCxiZ1mMK"
           opacity="1">
          <g
             id="u8I-Gc8pPj"
             opacity="1">
            <g
               id="Fnb-6H8BnK"
               opacity="1">
              <g
                 id="8Wgk5-UrU_"
                 opacity="1">
                <path
                   id="fS8JDb6E1m"
                   fill="#f7a01b"
                   fill-opacity="1"
                   d="m -103.716,323.98901 c 1.707,-1.126 10.057003,-6.77002 17.589001,-12.057 0,0 -23.842001,-26.021 -23.842001,-26.021 0,0 -2.895,18.76999 6.253,38.078 z" />
              </g>
              <g
                 id="4gxdsxUuaM"
                 opacity="1">
                <path
                   id="_rHxDbZAQb"
                   fill="#f7a01b"
                   fill-opacity="1"
                   d="m -73.084999,302.134 c -14.889,-22.14901 -36.884001,-16.22299 -36.884001,-16.22299 0,0 23.842001,26.021 23.842001,26.021 3.347,-2.349 6.533997,-4.62802 8.902001,-6.40702 0.923995,-0.695 3.220001,-2.69198 4.139999,-3.39099 z" />
              </g>
            </g>
          </g>
          <g
             id="FT4bIsr--_"
             opacity="1">
            <g
               id="XA_VD6h-uY"
               opacity="1">
              <g
                 id="_osqjiKmLz"
                 opacity="1">
                <path
                   id="2nueYZI5W4"
                   fill="#f58c32"
                   fill-opacity="1"
                   d="m -100.977,319.54999 c 1.315997,-0.86798 7.755999,-5.22098 13.564997,-9.29798 0,0 -18.386997,-20.06802 -18.386997,-20.06802 0,0 -2.233,14.47601 4.822,29.366 z" />
              </g>
              <g
                 id="bBkfBll-1U"
                 opacity="1">
                <path
                   id="JUxq24NlLz"
                   fill="#ef7c21"
                   fill-opacity="1"
                   d="M -77.355003,302.69601 C -88.836998,285.61499 -105.799,290.18399 -105.799,290.18399 c 0,0 18.386997,20.06802 18.386997,20.06802 2.581002,-1.811 5.039002,-3.569 6.865006,-4.94101 0.712997,-0.535 2.481995,-2.07601 3.191994,-2.61499 z" />
              </g>
            </g>
          </g>
        </g>
        <g
           id="dnCwQLbt1g"
           opacity="1">
          <g
             id="wmDnT8Qtzg"
             opacity="1">
            <g
               id="QNpVBpTyv8"
               opacity="1">
              <g
                 id="V3PUHD42KF"
                 opacity="1">
                <path
                   id="2eMQ--w5iD"
                   fill="#f7a01b"
                   fill-opacity="1"
                   d="m -18.889999,323.98901 c -1.707001,-1.126 -10.057002,-6.77002 -17.589001,-12.057 0,0 23.842,-26.021 23.842,-26.021 0,0 2.8950004,18.76999 -6.252999,38.078 z" />
              </g>
              <g
                 id="AwYH7BK_4M"
                 opacity="1">
                <path
                   id="AjAcBCAOhM"
                   fill="#f7a01b"
                   fill-opacity="1"
                   d="m -49.521,302.134 c 14.889999,-22.14901 36.884,-16.22299 36.884,-16.22299 0,0 -23.842,26.021 -23.842,26.021 -3.347,-2.349 -6.534,-4.62802 -8.902001,-6.40702 -0.923999,-0.695 -3.220001,-2.69198 -4.139999,-3.39099 z" />
              </g>
            </g>
          </g>
          <g
             id="F91hRQJ_4d"
             opacity="1">
            <g
               id="1UDzramWf-"
               opacity="1">
              <g
                 id="iUzYRVr07I"
                 opacity="1">
                <path
                   id="SwOrCojrv-"
                   fill="#f58c32"
                   fill-opacity="1"
                   d="m -21.629,319.54999 c -1.316,-0.86798 -7.756,-5.22098 -13.565,-9.29798 0,0 18.387001,-20.06802 18.387001,-20.06802 0,0 2.232999,14.47601 -4.822001,29.366 z" />
              </g>
              <g
                 id="Oq0ZKweUVB"
                 opacity="1">
                <path
                   id="6YzWpWsRc6"
                   fill="#ef7c21"
                   fill-opacity="1"
                   d="m -45.250999,302.69601 c 11.481998,-17.08102 28.444,-12.51202 28.444,-12.51202 0,0 -18.387001,20.06802 -18.387001,20.06802 -2.581002,-1.811 -5.037998,-3.569 -6.863999,-4.94101 -0.713001,-0.535 -2.483001,-2.07601 -3.193,-2.61499 z" />
              </g>
            </g>
          </g>
        </g>
      </g>
      <g
         id="uO0tXPxtNB"
         opacity="1">
        <g
           id="2jKuXh74CR"
           opacity="1">
          <path
             id="kjre22CNqk"
             fill="#fbb623"
             fill-opacity="1"
             d="m -106.299,334.983 c 0,24.66501 20.146,48.836 44.995999,48.836 0,0 0,-89.12201 0,-89.12201 -24.849999,0 -44.995999,15.621 -44.995999,40.28601 z" />
        </g>
        <g
           id="Trw6KN7vYW"
           opacity="1">
          <path
             id="Q4gf3Gj8-V"
             fill="#f7a01b"
             fill-opacity="1"
             d="m -61.303001,294.69699 c 0,0 0,89.12201 0,89.12201 24.851001,0 44.996002,-24.17099 44.996002,-48.836 0,-24.66501 -20.145001,-40.28601 -44.996002,-40.28601 z" />
        </g>
      </g>
      <g
         id="2mvqRABIbs"
         opacity="1">
        <g
           id="p49LhL0vYt"
           opacity="1">
          <g
             id="1Df8RT2cdT"
             opacity="1">
            <g
               id="shRZ0fEYnd"
               opacity="1">
              <g
                 id="1OAiPYVEzy"
                 opacity="1">
                <path
                   id="SwsRo7Y1yK"
                   fill="#ffffff"
                   fill-opacity="1"
                   d="m -81.360001,350.74899 c -6.347,4.56 -8.694,12.151 -5.241996,16.957 0,0 22.985996,-16.51098 22.985996,-16.51098 -3.452,-4.806 -11.396999,-5.00601 -17.744,-0.44602 z" />
              </g>
              <g
                 id="WSFxLK7bEA"
                 opacity="1">
                <path
                   id="f3weDo7y9r"
                   fill="#f0efef"
                   fill-opacity="1"
                   d="m -63.616001,351.19501 c 0,0 -22.985996,16.51098 -22.985996,16.51098 0,0 0,0 0,0 3.451995,4.806 11.396995,5.00702 17.744995,0.44703 6.347004,-4.56003 8.693001,-12.15201 5.241001,-16.95801 0,0 0,0 0,0 z" />
              </g>
              <g
                 id="5gxXKYPVgt"
                 opacity="1">
                <path
                   id="uLNFfqiatf"
                   fill="#505e5d"
                   fill-opacity="1"
                   d="m -69.980003,354.189 c 0,0.56201 -0.454995,1.01699 -1.016999,1.01699 -0.560997,0 -1.016998,-0.45498 -1.016998,-1.01699 0,-0.56199 0.456001,-1.017 1.016998,-1.017 0.562004,0 1.016999,0.45501 1.016999,1.017 z" />
              </g>
              <g
                 id="P_xbZuCaCN"
                 opacity="1">
                <path
                   id="9GZsUL5Mjy"
                   fill="#505e5d"
                   fill-opacity="1"
                   d="m -76.476997,350.83301 c 0,0.561 -0.456002,1.01599 -1.017006,1.01599 -0.561997,0 -1.017998,-0.45499 -1.017998,-1.01599 0,-0.56201 0.456001,-1.017 1.017998,-1.017 0.561004,0 1.017006,0.45499 1.017006,1.017 z" />
              </g>
              <g
                 id="475FoKFTCX"
                 opacity="1">
                <path
                   id="Y_6BDc8hEt"
                   fill="#505e5d"
                   fill-opacity="1"
                   d="m -72.653,361.10901 c 0,0.561 -0.455002,1.017 -1.016998,1.017 -0.561005,0 -1.016998,-0.456 -1.016998,-1.017 0,-0.56201 0.455993,-1.017 1.016998,-1.017 0.561996,0 1.016998,0.45499 1.016998,1.017 z" />
              </g>
              <g
                 id="FM_Wp-9Eam"
                 opacity="1">
                <path
                   id="IpRE9pMBMk"
                   fill="#505e5d"
                   fill-opacity="1"
                   d="m -66.295998,360.30301 c 0,0.56198 -0.455001,1.017 -1.017006,1.017 -0.560997,0 -1.016998,-0.45502 -1.016998,-1.017 0,-0.56201 0.456001,-1.017 1.016998,-1.017 0.562005,0 1.017006,0.45499 1.017006,1.017 z" />
              </g>
              <g
                 id="MKpcko4iNy"
                 opacity="1">
                <path
                   id="LHvRXLJ3ry"
                   fill="#505e5d"
                   fill-opacity="1"
                   d="m -77.702003,357.58099 c 0,0.56101 -0.454995,1.017 -1.016999,1.017 -0.560997,0 -1.016998,-0.45599 -1.016998,-1.017 0,-0.56198 0.456001,-1.01699 1.016998,-1.01699 0.562004,0 1.016999,0.45501 1.016999,1.01699 z" />
              </g>
              <g
                 id="LMiEQRoW82"
                 opacity="1">
                <path
                   id="ddVOA2KPmI"
                   fill="#505e5d"
                   fill-opacity="1"
                   d="m -72.829002,367.289 c 0,0.56101 -0.454995,1.017 -1.016999,1.017 -0.561996,0 -1.016998,-0.45599 -1.016998,-1.017 0,-0.56201 0.455002,-1.017 1.016998,-1.017 0.562004,0 1.016999,0.45499 1.016999,1.017 z" />
              </g>
              <g
                 id="SJmuOYleMO"
                 opacity="1">
                <path
                   id="bfJXRjQLk_"
                   fill="#505e5d"
                   fill-opacity="1"
                   d="m -84.931999,361.767 c 0,0.56201 -0.455002,1.017 -1.016998,1.017 -0.561005,0 -1.017006,-0.45499 -1.017006,-1.017 0,-0.56101 0.456001,-1.017 1.017006,-1.017 0.561996,0 1.016998,0.45599 1.016998,1.017 z" />
              </g>
            </g>
            <g
               id="Ka5VGksC-x"
               opacity="1">
              <path
                 id="9S0BMF2iba"
                 fill="#505e5d"
                 fill-opacity="1"
                 d="m -79.818001,368 c 0,0.56201 -0.456001,1.017 -1.016998,1.017 -0.561005,0 -1.016998,-0.45499 -1.016998,-1.017 0,-0.561 0.455993,-1.01801 1.016998,-1.01801 0.560997,0 1.016998,0.45701 1.016998,1.01801 z" />
            </g>
          </g>
          <g
             id="-ZQpbAnx19"
             opacity="1">
            <path
               id="UD314y-G9Y"
               fill="#dedede"
               fill-opacity="1"
               d="m -75.791,354.91501 c 0,0 -52.077,-0.789 -52.077,-0.789 0,0 2.991,-0.792 2.991,-0.792 7.345,-1.94302 14.921,-2.928 22.519,-2.928 14.442999,0 24.185003,3.60998 24.282004,3.647 0,0 2.284996,0.862 2.284996,0.862 z m -45.644,-1.54401 c 0,0 40.254,0.60901 40.254,0.60901 -3.851997,-1.06302 -11.425003,-2.72201 -21.177,-2.72201 -6.417,0 -12.82,0.71099 -19.077,2.113 z" />
          </g>
          <g
             id="FMtGr_hsUe"
             opacity="1">
            <path
               id="CPc_W-wQ0k"
               fill="#dedede"
               fill-opacity="1"
               d="m -121.52,386.26901 c 0,0 2.274,-2.099 2.274,-2.099 19.825002,-18.30401 41.482,-21.23501 41.698003,-21.263 0,0 2.422997,-0.307 2.422997,-0.307 0,0 -46.395,23.669 -46.395,23.669 z m 41.178997,-21.96502 C -86.513,365.681 -101.572,370.10599 -116.184,382.59 c 0,0 35.842997,-18.28601 35.842997,-18.28601 z" />
          </g>
          <g
             id="HitZVTFguP"
             opacity="1">
            <path
               id="kulOqQT2xZ"
               fill="#dedede"
               fill-opacity="1"
               d="m -127.506,372.56299 c 0,0 2.643,-1.608 2.643,-1.608 18.779,-11.431 36.340997,-12.66498 43.018998,-12.66498 1.311005,0 2.027001,0.052 2.056999,0.054 0,0 2.436005,0.176 2.436005,0.176 0,0 -50.155002,14.043 -50.155002,14.043 z m 44.743999,-13.413 c -6.807999,0.111 -22.099999,1.538 -38.793999,10.862 0,0 38.793999,-10.862 38.793999,-10.862 z" />
          </g>
        </g>
        <g
           id="L8ATun12uk"
           opacity="1">
          <g
             id="dhDPXxRsCP"
             opacity="1">
            <g
               id="s0D1u0RKZw"
               opacity="1">
              <g
                 id="SaMWSxUdaz"
                 opacity="1">
                <path
                   id="9Oo5yxpKDN"
                   fill="#ffffff"
                   fill-opacity="1"
                   d="m -41.247002,350.74899 c 6.347,4.56 8.695004,12.151 5.243,16.957 0,0 -22.986,-16.51098 -22.986,-16.51098 3.452004,-4.806 11.396,-5.00601 17.743,-0.44602 z" />
              </g>
              <g
                 id="QXIdomXQIY"
                 opacity="1">
                <path
                   id="r1nj9mRBJV"
                   fill="#f0efef"
                   fill-opacity="1"
                   d="m -58.990002,351.19501 c 0,0 22.986,16.51098 22.986,16.51098 0,0 0,0 0,0 -3.451999,4.806 -11.396999,5.00702 -17.743999,0.44703 -6.347,-4.56003 -8.694,-12.15201 -5.242001,-16.95801 0,0 0,0 0,0 z" />
              </g>
              <g
                 id="f7v4HcTdU4"
                 opacity="1">
                <path
                   id="xRzze6m6pE"
                   fill="#505e5d"
                   fill-opacity="1"
                   d="m -52.625999,354.189 c 0,0.56201 0.454998,1.01699 1.016998,1.01699 0.561001,0 1.017002,-0.45498 1.017002,-1.01699 0,-0.56199 -0.456001,-1.017 -1.017002,-1.017 -0.562,0 -1.016998,0.45501 -1.016998,1.017 z" />
              </g>
              <g
                 id="pk_sHLfUUg"
                 opacity="1">
                <path
                   id="Vbf4xtuK8p"
                   fill="#505e5d"
                   fill-opacity="1"
                   d="m -46.129002,350.83301 c 0,0.561 0.455002,1.01599 1.017002,1.01599 0.561001,0 1.016999,-0.45499 1.016999,-1.01599 0,-0.56201 -0.455998,-1.017 -1.016999,-1.017 -0.562,0 -1.017002,0.45499 -1.017002,1.017 z" />
              </g>
              <g
                 id="yUdCHbPbkR"
                 opacity="1">
                <path
                   id="A5cHb9fX8j"
                   fill="#505e5d"
                   fill-opacity="1"
                   d="m -49.952999,361.10901 c 0,0.561 0.454998,1.017 1.016998,1.017 0.562,0 1.017002,-0.456 1.017002,-1.017 0,-0.56201 -0.455002,-1.017 -1.017002,-1.017 -0.562,0 -1.016998,0.45499 -1.016998,1.017 z" />
              </g>
              <g
                 id="eAYp6Q4hov"
                 opacity="1">
                <path
                   id="GuVvwOEz56"
                   fill="#505e5d"
                   fill-opacity="1"
                   d="m -56.311001,360.30301 c 0,0.56198 0.455002,1.017 1.017002,1.017 0.560997,0 1.017998,-0.45502 1.017998,-1.017 0,-0.56201 -0.457001,-1.017 -1.017998,-1.017 -0.562,0 -1.017002,0.45499 -1.017002,1.017 z" />
              </g>
              <g
                 id="oB1Ny_jWUw"
                 opacity="1">
                <path
                   id="BiD9xNf_DI"
                   fill="#505e5d"
                   fill-opacity="1"
                   d="m -44.904999,357.58099 c 0,0.56101 0.455998,1.017 1.017998,1.017 0.561001,0 1.017002,-0.45599 1.017002,-1.017 0,-0.56198 -0.456001,-1.01699 -1.017002,-1.01699 -0.562,0 -1.017998,0.45501 -1.017998,1.01699 z" />
              </g>
              <g
                 id="hHDWgglrT2"
                 opacity="1">
                <path
                   id="CEicrhD-qS"
                   fill="#505e5d"
                   fill-opacity="1"
                   d="m -49.777,367.289 c 0,0.56101 0.455001,1.017 1.017002,1.017 0.560997,0 1.016998,-0.45599 1.016998,-1.017 0,-0.56201 -0.456001,-1.017 -1.016998,-1.017 -0.562001,0 -1.017002,0.45499 -1.017002,1.017 z" />
              </g>
              <g
                 id="c33QUUP3GY"
                 opacity="1">
                <path
                   id="74CT-CIF2g"
                   fill="#505e5d"
                   fill-opacity="1"
                   d="m -37.674,361.767 c 0,0.56201 0.454998,1.017 1.016999,1.017 0.562,0 1.017002,-0.45499 1.017002,-1.017 0,-0.56101 -0.455002,-1.017 -1.017002,-1.017 -0.562001,0 -1.016999,0.45599 -1.016999,1.017 z" />
              </g>
            </g>
            <g
               id="xBsvzN4dfx"
               opacity="1">
              <path
                 id="ddANoq0J83"
                 fill="#505e5d"
                 fill-opacity="1"
                 d="m -42.787998,368 c 0,0.56201 0.455997,1.017 1.016998,1.017 0.562,0 1.016998,-0.45499 1.016998,-1.017 0,-0.561 -0.454998,-1.01801 -1.016998,-1.01801 -0.561001,0 -1.016998,0.45701 -1.016998,1.01801 z" />
            </g>
          </g>
          <g
             id="728MjVCB2p"
             opacity="1">
            <path
               id="5x0dTKs2du"
               fill="#dedede"
               fill-opacity="1"
               d="m -46.816002,354.91501 c 0,0 2.286003,-0.862 2.286003,-0.862 0.097,-0.037 9.837998,-3.647 24.282,-3.647 7.596999,0 15.174999,0.98498 22.5199991,2.928 0,0 2.99,0.792 2.99,0.792 0,0 -52.0780021,0.789 -52.0780021,0.789 z m 26.568003,-3.65701 c -9.752001,0 -17.325003,1.65899 -21.177,2.72201 0,0 40.253999,-0.60901 40.253999,-0.60901 -6.2579999,-1.40201 -12.66,-2.113 -19.076999,-2.113 z" />
          </g>
          <g
             id="rKWf4kAciL"
             opacity="1">
            <path
               id="6FvzTT1JKQ"
               fill="#dedede"
               fill-opacity="1"
               d="m -1.087,386.26901 c 0,0 -46.393999,-23.669 -46.393999,-23.669 0,0 2.423,0.307 2.423,0.307 0.216,0.028 21.873999,2.95899 41.6979991,21.263 0,0 2.2729999,2.099 2.2729999,2.099 z m -41.177999,-21.96502 c 0,0 35.8429991,18.28601 35.8429991,18.28601 C -21.035,370.10501 -36.094002,365.67999 -42.264999,364.30399 Z" />
          </g>
          <g
             id="c6Js5_IYcf"
             opacity="1">
            <path
               id="yTH6H29qYv"
               fill="#dedede"
               fill-opacity="1"
               d="m 4.9000001,372.56299 c 0,0 -50.1550011,-14.043 -50.1550011,-14.043 0,0 2.436001,-0.176 2.436001,-0.176 0.03,-0.002 0.745998,-0.054 2.056999,-0.054 6.678001,0 24.240002,1.23398 43.019001,12.66498 0,0 2.6430001,1.608 2.6430001,1.608 z m -44.7429991,-13.413 c 0,0 38.792999,10.862 38.792999,10.862 -16.695001,-9.324 -31.985,-10.751 -38.792999,-10.862 z" />
          </g>
        </g>
      </g>
      <g
         id="lj4QEv4Yip"
         opacity="1">
        <g
           id="izhCfoeamz"
           opacity="1">
          <g
             id="q27oauMrBg"
             opacity="1">
            <g
               id="mramrGJYWR"
               opacity="1">
              <g
                 id="Zo_rLD9OoR"
                 opacity="1">
                <g
                   id="ylM5Mk6L4Z"
                   opacity="1">
                  <path
                     id="_M6r497L0B"
                     fill="#75bc46"
                     fill-opacity="1"
                     d="m -75.486,328.604 c -0.698998,-0.55999 -1.459999,-1.07101 -2.282997,-1.51101 -0.008,-0.004 -0.015,-0.007 -0.022,-0.011 0,0 -5.626999,9.81601 -5.626999,9.81601 0,0 -0.551003,0.961 -0.551003,0.961 0.116005,0.066 0.228005,0.134 0.346001,0.19699 0.822998,0.44 1.672005,0.78699 2.528999,1.05801 6.104004,1.92499 12.535004,-0.059 12.535004,-0.059 0,0 -1.928002,-6.44998 -6.927002,-10.45099 z" />
                </g>
                <g
                   id="GuoaIQT2MA"
                   opacity="1">
                  <g
                     id="sXeUD5fyq3"
                     opacity="1">
                    <path
                       id="htZWG1z4KA"
                       fill="#253436"
                       fill-opacity="1"
                       d="m -83.417999,336.89801 c 0,0 5.626999,-9.81601 5.626999,-9.81601 0,0 -5.626999,9.81601 -5.626999,9.81601 0,0 0,0 0,0 z" />
                  </g>
                  <g
                     id="cFsdoWK9s3"
                     opacity="1">
                    <path
                       id="9-PEAXjsdl"
                       fill="#75bc46"
                       fill-opacity="1"
                       d="m -92.835999,326.146 c 0,0 1.928002,6.44799 6.924996,10.44799 0.602005,0.48102 1.25,0.922 1.942001,1.31702 0,0 0.551003,-0.96002 0.551003,-0.96002 0,0 5.626999,-9.81699 5.626999,-9.81699 -0.816002,-0.43399 -1.657997,-0.77899 -2.506997,-1.04699 -6.107002,-1.92701 -12.538002,0.059 -12.538002,0.059 z" />
                  </g>
                </g>
              </g>
              <g
                 id="4CnHdVuNpN"
                 opacity="1">
                <g
                   id="Q5xFStVrc-"
                   opacity="1">
                  <path
                     id="aIOUpJIevq"
                     fill="#172020"
                     fill-opacity="1"
                     d="m -85.125,329.78101 c -1.787003,3.11798 -1.165001,6.82598 1.167999,8.16198 0,0 6.471001,-11.29098 6.471001,-11.29098 -2.332001,-1.33701 -5.850998,0.011 -7.639,3.129 z" />
                </g>
                <g
                   id="SLHdOqwDCW"
                   opacity="1">
                  <path
                     id="6USvqgeZGQ"
                     fill="#000000"
                     fill-opacity="1"
                     d="m -77.486,326.65201 c 0,0 0,0 0,0 0,0 -6.471001,11.29098 -6.471001,11.29098 0,0 0,0 0,0 2.332001,1.33701 5.905998,-0.004 7.693001,-3.12198 1.787003,-3.11801 1.110001,-6.832 -1.222,-8.169 z" />
                </g>
              </g>
            </g>
            <g
               id="7FrzZbMfWa"
               opacity="1">
              <path
                 id="XeWrwChJpa"
                 fill="#ffffff"
                 fill-opacity="1"
                 d="m -79.999001,329.13 c -0.071,0.667 -0.715995,1.14499 -1.444,1.06901 -0.726997,-0.077 -1.260002,-0.68 -1.190002,-1.34702 0.07,-0.66699 0.717003,-1.146 1.444,-1.069 0.728004,0.076 1.260002,0.68002 1.190002,1.34701 z" />
            </g>
            <g
               id="q0w23BMjrd"
               opacity="1">
              <path
                 id="NkBxGO7gdW"
                 fill="#ffffff"
                 fill-opacity="1"
                 d="m -79.188004,335.922 c -0.03699,0.35501 -0.380996,0.61099 -0.767997,0.57 -0.387001,-0.041 -0.671997,-0.363 -0.633995,-0.71801 0.037,-0.35498 0.381996,-0.60898 0.768997,-0.568 0.387001,0.041 0.669998,0.361 0.632995,0.71601 z" />
            </g>
          </g>
          <g
             id="ttKvhM2tSo"
             opacity="1">
            <path
               id="hLPqNxbVr8"
               fill="#253436"
               fill-opacity="1"
               d="m -74.917999,327.65201 c -0.699997,-0.55902 -1.460999,-1.07202 -2.284004,-1.512 -0.822999,-0.43902 -1.670998,-0.78701 -2.528,-1.05801 -6.106995,-1.927 -13.105996,1.01199 -13.105996,1.01199 0,0 6.431,-1.98599 12.538002,-0.059 0.849,0.26899 1.690995,0.61301 2.506997,1.047 0.007,0.004 0.014,0.007 0.022,0.011 0.822998,0.44 1.583999,0.95102 2.282997,1.51101 4.999,4.00101 6.927002,10.45099 6.927002,10.45099 0,0 -1.360001,-7.40197 -6.359001,-11.40298 z" />
          </g>
        </g>
        <g
           id="KK3jwDlovX"
           opacity="1">
          <g
             id="0t_HMeOkXF"
             opacity="1">
            <g
               id="dDcHD4ERot"
               opacity="1">
              <g
                 id="2t5iyNEO8s"
                 opacity="1">
                <g
                   id="XRPEA3bArO"
                   opacity="1">
                  <path
                     id="QJSpY4gVt9"
                     fill="#75bc46"
                     fill-opacity="1"
                     d="m -47.120998,328.65601 c 0.698997,-0.56 1.460998,-1.07102 2.283996,-1.51102 0.007,-0.004 0.015,-0.007 0.022,-0.011 0,0 5.626999,9.81699 5.626999,9.81699 0,0 0.550999,0.96002 0.550999,0.96002 -0.114998,0.066 -0.229,0.134 -0.347,0.19699 -0.822998,0.44 -1.671997,0.78699 -2.528,1.05799 -6.104,1.92602 -12.535,-0.059 -12.535,-0.059 0,0 1.927002,-6.44998 6.926003,-10.45098 z" />
                </g>
                <g
                   id="0AeWRjTosp"
                   opacity="1">
                  <g
                     id="WL3_zwI9iH"
                     opacity="1">
                    <path
                       id="v3czR5JRzB"
                       fill="#253436"
                       fill-opacity="1"
                       d="m -39.188,336.89801 c 0,0 -5.626999,-9.81601 -5.626999,-9.81601 0,0 5.626999,9.81601 5.626999,9.81601 0,0 0,0 0,0 z" />
                  </g>
                  <g
                     id="6tXrttYlZn"
                     opacity="1">
                    <path
                       id="70dZ_JLAgV"
                       fill="#75bc46"
                       fill-opacity="1"
                       d="m -29.77,326.146 c 0,0 -1.928999,6.44799 -6.925,10.44799 -0.602001,0.48102 -1.25,0.922 -1.942001,1.31702 0,0 -0.550999,-0.96002 -0.550999,-0.96002 0,0 -5.626999,-9.81699 -5.626999,-9.81699 0.815998,-0.43399 1.657998,-0.77899 2.507,-1.04699 C -36.201,324.16 -29.77,326.146 -29.77,326.146 Z" />
                  </g>
                </g>
              </g>
              <g
                 id="PL1GNgm7Zp"
                 opacity="1">
                <g
                   id="pNX7rOZAL_"
                   opacity="1">
                  <path
                     id="A3E4dd7dXe"
                     fill="#172020"
                     fill-opacity="1"
                     d="m -37.481998,329.78101 c 1.786998,3.11798 1.166999,6.82598 -1.166001,8.16198 0,0 -6.472999,-11.29098 -6.472999,-11.29098 2.333,-1.33701 5.851997,0.011 7.639,3.129 z" />
                </g>
                <g
                   id="pZOwlxl99Q"
                   opacity="1">
                  <path
                     id="U8bBxUDPfG"
                     fill="#000000"
                     fill-opacity="1"
                     d="m -45.120998,326.65201 c 0,0 0,0 0,0 0,0 6.472999,11.29098 6.472999,11.29098 0,0 0,0 0,0 -2.332001,1.33701 -5.907001,-0.004 -7.694,-3.12198 -1.787003,-3.11801 -1.111,-6.832 1.221001,-8.169 z" />
                </g>
              </g>
            </g>
            <g
               id="7xBOPqx8Fv"
               opacity="1">
              <path
                 id="qPjvUlDqcT"
                 fill="#ffffff"
                 fill-opacity="1"
                 d="m -42.606998,329.13 c 0.07,0.667 0.716999,1.14499 1.444,1.06901 0.727997,-0.077 1.259998,-0.68 1.189998,-1.34702 -0.07,-0.66699 -0.716999,-1.146 -1.444999,-1.069 -0.727001,0.076 -1.260002,0.68002 -1.188999,1.34701 z" />
            </g>
            <g
               id="y4NnxbGcwq"
               opacity="1">
              <path
                 id="MuxMTc4RZu"
                 fill="#ffffff"
                 fill-opacity="1"
                 d="m -43.417999,335.922 c 0.037,0.35501 0.382,0.61099 0.769001,0.57 0.386997,-0.041 0.669998,-0.363 0.632999,-0.71801 -0.037,-0.35498 -0.382,-0.60898 -0.769001,-0.568 -0.387001,0.041 -0.670002,0.361 -0.632999,0.71601 z" />
            </g>
          </g>
          <g
             id="SHMAKfJ4em"
             opacity="1">
            <path
               id="AOxszcR--c"
               fill="#253436"
               fill-opacity="1"
               d="m -47.688,327.65201 c 0.699002,-0.55902 1.460999,-1.07202 2.284001,-1.512 0.822998,-0.43902 1.672001,-0.78701 2.528,-1.05801 6.106998,-1.927 13.105999,1.01199 13.105999,1.01199 0,0 -6.431,-1.98599 -12.537999,-0.059 -0.849002,0.26899 -1.691002,0.61301 -2.507,1.047 -0.007,0.004 -0.015,0.007 -0.022,0.011 -0.822998,0.44 -1.584999,0.95102 -2.283996,1.51101 -4.999001,4.00101 -6.926003,10.45099 -6.926003,10.45099 0,0 1.360001,-7.40197 6.359001,-11.40298 z" />
          </g>
        </g>
      </g>
      <g
         id="3q7y__lwkP"
         opacity="1">
        <g
           id="4vk_0wTIMo"
           opacity="1">
          <path
             id="_Tgvw8S7Q8"
             fill="#253436"
             fill-opacity="1"
             d="m -69.480003,345.53 c -1.720993,0.71301 -1.317994,3.449 0,4.785 0,0 5.772003,5.77399 5.772003,5.77399 0.602001,0.603 1.377998,0.93201 2.171001,0.97 0.077,0.006 0.155998,0.005 0.233998,0.006 0,0 0,-12.70801 0,-12.70801 -3.143998,0 -6.289002,0.391 -8.177002,1.17301 z" />
        </g>
        <g
           id="uhaivCddLn"
           opacity="1">
          <path
             id="f4zoicN_PR"
             fill="#172020"
             fill-opacity="1"
             d="m -53.125999,345.53 c -1.889,-0.78201 -5.033001,-1.17301 -8.177002,-1.17301 0,0 0,12.70801 0,12.70801 0.858001,0.009 1.728,-0.319 2.384002,-0.97601 0,0 5.793,-5.77399 5.793,-5.77399 1.318,-1.336 1.721,-4.07199 0,-4.785 z" />
        </g>
      </g>
      <g
         id="YXX1Msr0KJ"
         opacity="1">
        <g
           id="_wmvq0L3yh"
           opacity="1">
          <path
             id="JFmVLCgMEL"
             fill="#f5f6f6"
             fill-opacity="1"
             d="m -91.380997,502.535 c 0,1.69699 0.436997,3.305 1.215996,4.745 0,0 11.598999,0 11.598999,0 0,0 0,-15.901 0,-15.901 -7.076996,0 -12.814995,4.99399 -12.814995,11.156 z" />
        </g>
        <g
           id="smUdl4cJIj"
           opacity="1">
          <path
             id="8EWwbH9NX-"
             fill="#d8d8d6"
             fill-opacity="1"
             d="m -65.75,502.535 c 0,-6.16201 -5.738998,-11.156 -12.816002,-11.156 0,0 0,15.901 0,15.901 0,0 11.599999,0 11.599999,0 0.779007,-1.44 1.216003,-3.04801 1.216003,-4.745 z" />
        </g>
      </g>
      <g
         id="Lpeo7dLsnS"
         opacity="1">
        <g
           id="s-Jt6_JeeG"
           opacity="1">
          <path
             id="dUPcQBVk50"
             fill="#d8d8d6"
             fill-opacity="1"
             d="m -31.427999,502.535 c 0,1.69699 -0.437001,3.305 -1.216002,4.745 0,0 -11.598999,0 -11.598999,0 0,0 0,-15.901 0,-15.901 7.077,0 12.815001,4.99399 12.815001,11.156 z" />
        </g>
        <g
           id="VQtzd4gQF_"
           opacity="1">
          <path
             id="eOkqz2CZwC"
             fill="#f5f6f6"
             fill-opacity="1"
             d="m -57.058998,502.535 c 0,-6.16201 5.737999,-11.156 12.815998,-11.156 0,0 0,15.901 0,15.901 0,0 -11.599999,0 -11.599999,0 -0.779003,-1.44 -1.215999,-3.04801 -1.215999,-4.745 z" />
        </g>
      </g>
    </g>
  </g>
</svg>
