<?xml version="1.0" encoding="UTF-8" standalone="no"?>
<!-- Created with Inkscape (http://www.inkscape.org/) -->

<svg
   width="224"
   height="253"
   viewBox="0 0 59.266665 66.939583"
   version="1.1"
   id="svg1973"
   sodipodi:docname="placeholder-other.svg"
   inkscape:version="1.2.2 (b0a8486541, 2022-12-01)"
   xmlns:inkscape="http://www.inkscape.org/namespaces/inkscape"
   xmlns:sodipodi="http://sodipodi.sourceforge.net/DTD/sodipodi-0.dtd"
   xmlns="http://www.w3.org/2000/svg"
   xmlns:svg="http://www.w3.org/2000/svg">
  <sodipodi:namedview
     id="namedview1975"
     pagecolor="#505050"
     bordercolor="#eeeeee"
     borderopacity="1"
     inkscape:showpageshadow="0"
     inkscape:pageopacity="0"
     inkscape:pagecheckerboard="0"
     inkscape:deskcolor="#505050"
     inkscape:document-units="mm"
     showgrid="false"
     inkscape:zoom="2.29796"
     inkscape:cx="101.1767"
     inkscape:cy="78.9831"
     inkscape:window-width="2500"
     inkscape:window-height="1414"
     inkscape:window-x="60"
     inkscape:window-y="0"
     inkscape:window-maximized="1"
     inkscape:current-layer="layer1" />
  <defs
     id="defs1970" />
  <g
     inkscape:label="Layer 1"
     inkscape:groupmode="layer"
     id="layer1"
     transform="translate(-51.489093,29.665901)">
    <rect
       style="display:block;fill:#ed6b5b;fill-opacity:1;stroke-width:1;stroke-linecap:round;stroke-linejoin:round;paint-order:stroke fill markers"
       id="rect3417"
       width="59.266666"
       height="66.939583"
       x="51.489094"
       y="-29.665901"
       ry="0.26674709"
       transform="translate(-1.0625e-6)"
       inkscape:label="rect3417" />
    <g
       id="j9qDNQTHft"
       opacity="1"
       style="display:block"
       transform="matrix(1.3103474,0,0,1.3103474,595.58691,-446.77079)">
      <g
         id="IY36kZDUgc"
         opacity="1">
        <g
           id="vOdq66s8fT"
           opacity="1">
          <path
             id="a7nZmuFdKa"
             fill="#505e5d"
             fill-opacity="1"
             d="m -392.14899,341.53601 c 0,0 0,13.70398 0,13.70398 0.11899,-0.016 0.23999,-0.024 0.362,-0.024 1.91699,0 3.07099,1.164 5.08698,1.111 1.039,-0.029 4.51602,-0.822 4.51602,-4.13401 0,-3.78598 -4.009,-10.65698 -9.965,-10.65698 z" />
        </g>
        <g
           id="WYmvY21GpS"
           opacity="1">
          <path
             id="QUaEU3cagH"
             fill="#2b3333"
             fill-opacity="1"
             d="m -401.91599,353.14801 c 0.50599,3.00501 3.15699,4.13001 5.89899,3.353 2.06101,-0.58301 2.956,-1.14002 3.86801,-1.26102 0,0 0,-13.70398 0,-13.70398 -5.26901,0 -10.52502,7.10199 -9.767,11.612 z" />
        </g>
        <g
           id="bov-a23z7h"
           opacity="1">
          <g
             id="J7A4hX_m2E"
             opacity="1">
            <path
               id="_iVoNbd4LV"
               fill="#2b3333"
               fill-opacity="1"
               d="m -406.879,343.97299 c 1.57999,2.01502 4.10901,2.67002 5.64899,1.46301 0,0 -5.72,-7.298 -5.72,-7.298 -1.53998,1.207 -1.509,3.82001 0.071,5.83499 z" />
          </g>
          <g
             id="A27XBLd0Js"
             opacity="1">
            <path
               id="OhxyGu5VrS"
               fill="#505e5d"
               fill-opacity="1"
               d="m -406.95001,338.138 c 0,0 5.72,7.298 5.72,7.298 1.54001,-1.207 1.509,-3.82101 -0.071,-5.83599 -1.58002,-2.01502 -4.10901,-2.66901 -5.64902,-1.46201 z" />
          </g>
        </g>
        <g
           id="S7XHBv--Bq"
           opacity="1">
          <g
             id="duK6FFE_QW"
             opacity="1">
            <path
               id="PFVtbvS0U5"
               fill="#2b3333"
               fill-opacity="1"
               d="m -399.608,336.522 c 0.289,2.54401 2.099,4.42701 4.044,4.207 0,0 -1.04599,-9.21301 -1.04599,-9.21301 -1.944,0.22 -3.28701,2.46201 -2.99801,5.00601 z" />
          </g>
          <g
             id="CfYFjquMqP"
             opacity="1">
            <path
               id="g_wZzprJ_K"
               fill="#505e5d"
               fill-opacity="1"
               d="m -396.60999,331.51599 c 0,0 1.04599,9.21301 1.04599,9.21301 1.94501,-0.221 3.28699,-2.46099 2.99799,-5.00601 -0.289,-2.544 -2.099,-4.42798 -4.04398,-4.207 z" />
          </g>
        </g>
        <g
           id="lkBbbNVKsO"
           opacity="1">
          <g
             id="fxjcRUV30B"
             opacity="1">
            <path
               id="d-PDOcZsoP"
               fill="#2b3333"
               fill-opacity="1"
               d="m -391.021,334.58301 c -0.695,2.46399 0.26999,4.893 2.15299,5.42398 0,0 2.51602,-8.92499 2.51602,-8.92499 -1.884,-0.53101 -3.974,1.03601 -4.66901,3.50101 z" />
          </g>
          <g
             id="Ze5EAqegf6"
             opacity="1">
            <path
               id="vO_Sd5_4EG"
               fill="#505e5d"
               fill-opacity="1"
               d="m -386.35199,331.082 c 0,0 -2.51602,8.92499 -2.51602,8.92499 1.88302,0.531 3.974,-1.03598 4.669,-3.50098 0.69501,-2.46402 -0.26998,-4.893 -2.15298,-5.42401 z" />
          </g>
        </g>
        <g
           id="eSWh3YB4fc"
           opacity="1">
          <g
             id="ib-byhmYY9"
             opacity="1">
            <path
               id="j3Bvqu9Bqf"
               fill="#2b3333"
               fill-opacity="1"
               d="m -384.112,340.00699 c -1.12299,2.302 -0.60699,4.86301 1.15201,5.72101 0,0 4.065,-8.33499 4.065,-8.33499 -1.759,-0.85801 -4.09402,0.31198 -5.21701,2.61398 z" />
          </g>
          <g
             id="jQDOpfwIOd"
             opacity="1">
            <path
               id="hMW12imEzU"
               fill="#505e5d"
               fill-opacity="1"
               d="m -378.89499,337.39301 c 0,0 -4.065,8.33499 -4.065,8.33499 1.759,0.858 4.095,-0.31201 5.21698,-2.61399 1.12301,-2.302 0.60702,-4.863 -1.15198,-5.721 z" />
          </g>
        </g>
      </g>
    </g>
  </g>
</svg>
