<?xml version="1.0" encoding="UTF-8" standalone="no"?>
<!-- Created with Inkscape (http://www.inkscape.org/) -->

<svg
   width="224"
   height="231"
   viewBox="0 0 59.266665 61.11875"
   version="1.1"
   id="svg1973"
   sodipodi:docname="placeholder-dog.svg"
   inkscape:version="1.2.2 (b0a8486541, 2022-12-01)"
   xmlns:inkscape="http://www.inkscape.org/namespaces/inkscape"
   xmlns:sodipodi="http://sodipodi.sourceforge.net/DTD/sodipodi-0.dtd"
   xmlns="http://www.w3.org/2000/svg"
   xmlns:svg="http://www.w3.org/2000/svg">
  <sodipodi:namedview
     id="namedview86"
     pagecolor="#505050"
     bordercolor="#eeeeee"
     borderopacity="1"
     inkscape:showpageshadow="0"
     inkscape:pageopacity="0"
     inkscape:pagecheckerboard="0"
     inkscape:deskcolor="#505050"
     showgrid="false"
     inkscape:zoom="0.97456102"
     inkscape:cx="55.409563"
     inkscape:cy="183.67244"
     inkscape:window-width="1860"
     inkscape:window-height="1055"
     inkscape:window-x="60"
     inkscape:window-y="0"
     inkscape:window-maximized="1"
     inkscape:current-layer="layer1" />
  <defs
     id="defs1970" />
  <g
     id="layer1"
     transform="matrix(0.91304348,0,0,0.91304348,-44.434969,27.086257)">
    <rect
       style="display:block;fill:#f9ac68;fill-opacity:1;stroke-width:1.04654;stroke-linecap:round;stroke-linejoin:round;paint-order:stroke fill markers"
       id="rect3417"
       width="64.911118"
       height="66.939583"
       x="48.66687"
       y="-29.665901"
       ry="0.26674709" />
    <g
       id="TH9jdR5nFG"
       style="display:block"
       transform="matrix(0.21967874,0,0,0.21967874,67.247885,-79.156455)"
       opacity="1">
      <g
         id="oV0KLU4ALr"
         opacity="1">
        <path
           id="jYd1eouVGm"
           fill="#170f0c"
           fill-opacity="1"
           d="m 39.393002,506.00101 c 0,3.595 -9.076003,6.50998 -20.272002,6.50998 -11.1959998,0 -20.272,-2.91498 -20.272,-6.50998 0,-3.59601 9.0760002,-6.51001 20.272,-6.51001 11.195999,0 20.272002,2.914 20.272002,6.51001 z" />
      </g>
      <g
         id="-twql4ko9_"
         opacity="1">
        <path
           id="bGCUa143jS"
           fill="#341a0e"
           fill-opacity="1"
           d="m 115.263,506.00101 c 0,3.595 -9.076,6.50998 -20.272003,6.50998 -11.195999,0 -20.271995,-2.91498 -20.271995,-6.50998 0,-3.59601 9.075996,-6.51001 20.271995,-6.51001 11.196003,0 20.272003,2.914 20.272003,6.51001 z" />
      </g>
      <g
         id="6NoXdNn14o"
         opacity="1">
        <path
           id="M44io7kywu"
           fill="#6d3c1d"
           fill-opacity="1"
           d="m 103.783,496.992 c 1.366,-0.34201 7.384,0.68299 25.144,0 17.761,-0.68301 35.06,-12.45199 35.06,-12.45199 0,0 -6.148,-6.831 -6.148,-6.831 0,0 15.37,-22.54202 15.37,-22.54202 0,0 -7.51399,-5.807 -7.51399,-5.807 0,0 -7.17301,-32.10499 -7.17301,-32.10499 0,0 -8.539,7.172 -8.539,7.172 0,0 -16.052,-20.151 -16.052,-20.151 0,0 -5.509,10.38199 -5.509,10.38199 0,0 -11.955,-9.457 -11.955,-9.457 0,0 -0.179,17.84302 -0.179,17.84302 0,0 10.707,7.49499 10.707,7.49499 0,0 -4.461,7.672 -4.461,7.672 0,0 12.49,7.138 12.49,7.138 0,0 1.428,10.17099 1.428,10.17099 0,0 -6.78099,-1.784 -6.78099,-1.784 0,0 -7.35301,9.969 -7.35301,9.969 0,0 -12.296,15.712 -12.296,15.712 0,0 -8.88,12.637 -8.88,12.637 0,0 2.641,4.93801 2.641,4.93801 z" />
      </g>
      <g
         id="PUYuZnixUM"
         opacity="1">
        <g
           id="gDuZitxXdy"
           opacity="1">
          <path
             id="9sn-IcmWfR"
             fill="#170f0c"
             fill-opacity="1"
             d="m -8.5790005,462.96399 c 0,29.621 30.0020005,50.02203 67.0119995,50.02203 0,0 0,-120.66201 0,-120.66201 -37.009999,0 -67.0119995,41.018 -67.0119995,70.63998 z" />
        </g>
        <g
           id="0_hyIID7YG"
           opacity="1">
          <path
             id="7OumAvYY5q"
             fill="#341a0e"
             fill-opacity="1"
             d="m 57.862999,392.32401 c 0,0 0,120.66201 0,120.66201 37.010002,0 67.012001,-20.40103 67.012001,-50.02203 0,-29.62198 -30.001999,-70.63998 -67.012001,-70.63998 z" />
        </g>
      </g>
      <g
         id="L8wQLYM3mc"
         opacity="1">
        <g
           id="uYNtWSL_aA"
           opacity="1">
          <path
             id="7XpKARxOmf"
             fill="#5c2d12"
             fill-opacity="1"
             d="m 57.467999,353.04401 c -28.845999,0 -52.230999,21.207 -52.230999,47.36798 0,1.58801 0.088,3.11502 0.257,4.587 2.236,34.512 14.678001,68.11402 16.256999,102.685 0.01,1.57401 0.421002,3.065 1.158001,4.41501 0,0 26.971001,0 26.971001,0 1.035,-1.92899 1.363998,-4.12399 0.822998,-6.37601 -4.607998,-23.08999 -4.243,-46.41 -5.415001,-69.66098 3.908001,0.44699 7.986,0.664 12.180001,0.664 0.109001,0 0.217002,-0.002 0.325,-0.002 0,0 0,-83.676 0,-83.676 -0.107998,-10e-4 -0.216999,-0.004 -0.325,-0.004 z" />
        </g>
        <g
           id="TwIbuyXjUM"
           opacity="1">
          <path
             id="OL8lNumiYC"
             fill="#6a3415"
             fill-opacity="1"
             d="m 109.698,400.41199 c 0,-26.06198 -23.209002,-47.206 -51.905001,-47.36399 0,0 0,83.676 0,83.676 4.108002,-0.011 8.101998,-0.229 11.931999,-0.67001 -1.171997,23.25201 -0.806999,46.57601 -5.416,69.669 -0.540996,2.25202 -0.210998,4.44702 0.823006,6.37601 0,0 26.971992,0 26.971992,0 0.737007,-1.35001 1.148003,-2.841 1.158005,-4.41501 1.627998,-35.64999 14.808999,-70.268 16.435999,-105.918 0,-0.10699 0,-1.005 0,-1.354 z" />
        </g>
      </g>
      <g
         id="hg4mvYvLjB"
         opacity="1">
        <path
           id="Gzyv0nFICM"
           fill="#5c2d12"
           fill-opacity="1"
           d="m 42.216,525.65802 c -8.484002,6.16296 -19.316,5.71399 -24.195,-1.00299 -4.879,-6.716 -1.957001,-17.15704 6.527,-23.31903 8.485001,-6.163 19.317002,-5.71399 24.195,1.00299 4.879002,6.716 1.957001,17.15698 -6.527,23.31903 z" />
      </g>
      <g
         id="9br0m3ohZW"
         opacity="1">
        <path
           id="0CJ7Jr0vLv"
           fill="#6a3415"
           fill-opacity="1"
           d="m 72.830002,525.65802 c 8.484001,6.16296 19.317001,5.71399 24.195,-1.00299 4.878998,-6.716 1.956001,-17.15704 -6.528,-23.31903 -8.484002,-6.163 -19.317002,-5.71399 -24.195,1.00299 -4.879002,6.716 -1.956001,17.15698 6.528,23.31903 z" />
      </g>
      <g
         id="wz_JVfKZ0r"
         opacity="1">
        <g
           id="tSPbzIhbDi"
           opacity="1">
          <path
             id="G0-vbfljOE"
             fill="#341a0e"
             fill-opacity="1"
             d="m 38.405998,287.017 c 0,0 -17.505998,-11.276 -21.134998,-11.116 -2.146,0.094 -5.035,4.026 -5.035,4.026 0,0 -12.79000002,23.76801 -12.79000002,23.76801 0,0 19.73500002,18.01599 19.73500002,18.01599 0,0 19.224998,-34.694 19.224998,-34.694 z" />
        </g>
        <g
           id="f9XwcHI9m7"
           opacity="1">
          <path
             id="SOzM_dRmof"
             fill="#5c2d12"
             fill-opacity="1"
             d="m 15.774,276.44501 c 0,0 -0.242,0.216 -0.622,0.733 -0.797,1.08298 -2.023,3.67499 -1.644,9.69199 1.254,19.88 5.928001,56.67501 -4.0989996,58.54699 C 6.4000001,345.979 -14.263,322.59201 -15.514,312.03799 -16.565001,303.173 -3.786,289.29401 15.774,276.44501 Z" />
        </g>
      </g>
      <g
         id="e0qiC0a_NF"
         opacity="1">
        <g
           id="gicLXZfukF"
           opacity="1">
          <path
             id="rUyjOUPdsZ"
             fill="#341a0e"
             fill-opacity="1"
             d="m 67.971001,286.19299 c 0,0 11.609001,-17.28698 15.003997,-18.578 2.008004,-0.763 6.217003,1.703 6.217003,1.703 0,0 21.157999,16.75901 21.157999,16.75901 0,0 -10.987001,24.359 -10.987001,24.359 0,0 -31.391998,-24.24301 -31.391998,-24.24301 z" />
        </g>
        <g
           id="HRiFTPIAtB"
           opacity="1">
          <path
             id="L1EsnyW3a-"
             fill="#5c2d12"
             fill-opacity="1"
             d="m 84.564003,267.522 c 0,0 0.307999,0.103 0.862,0.42701 1.160995,0.678 3.313995,2.57199 5.347999,8.24798 C 97.496002,294.948 107.777,330.586 117.726,328.33401 120.711,327.65799 130.42101,298 127.39,287.81299 124.844,279.25601 107.613,271.57401 84.564003,267.522 Z" />
        </g>
      </g>
      <g
         id="EXzcs85KMG"
         opacity="1">
        <g
           id="e0Fo9mwMu5"
           opacity="1">
          <path
             id="dXnTH-Lvx7"
             fill="#905633"
             fill-opacity="1"
             d="m 17.92,318.42899 c 0.252001,6.958 4.596001,12.617 5.879999,19 0.645001,3.207 -2.399,23.048 12.065003,36.01901 1.870998,1.67801 3.890999,2.47 6.615997,4.82001 4.275002,3.68698 9.482002,8.556 14.987,8.60498 0,0 0,-104.805 0,-104.805 -21.887997,0.11902 -40.481999,10.495 -39.547999,36.361 z" />
        </g>
        <g
           id="Tb6oJKiZqR"
           opacity="1">
          <path
             id="7fvAV-VeTe"
             fill="#8a4e29"
             fill-opacity="1"
             d="m 57.848,282.065 c -0.126999,0 -0.252999,0.003 -0.380001,0.003 0,0 0,104.805 0,104.805 0.028,0 0.056,0.003 0.084,0.003 5.893002,0 12.068005,-6.70902 15.807003,-10.27301 2.091995,-1.995 2.542,-0.624 4.303002,-1.97199 16.415,-12.56201 13.576995,-33.91101 14.241996,-37.20202 1.278,-6.383 5.260002,-12.06098 5.874001,-19 C 100.169,291.41901 79.902,282.065 57.848,282.065 Z" />
        </g>
      </g>
      <g
         id="af-3qO4-u9"
         opacity="1">
        <g
           id="9Y1fscZDrF"
           opacity="1">
          <path
             id="DBOYel7nUY"
             fill="#efccb1"
             fill-opacity="1"
             d="m 45.080002,359.866 c 0,0 12.387997,0 12.387997,0 0,0 0,-32.07401 0,-32.07401 -6.702,0 -12.159001,14.25702 -12.387997,32.07401 z" />
        </g>
        <g
           id="i276Xgbkjg"
           opacity="1">
          <path
             id="otZLMvTJV6"
             fill="#efc3a2"
             fill-opacity="1"
             d="m 57.467999,327.79199 c 0,0 0,32.07401 0,32.07401 0,0 12.388004,0 12.388004,0 -0.228005,-17.81699 -5.685005,-32.07401 -12.388004,-32.07401 z" />
        </g>
      </g>
      <g
         id="6m0xrlBAiW"
         opacity="1">
        <g
           id="z5Uhcy8Kel"
           opacity="1">
          <g
             id="U9fOxNPbRf"
             opacity="1">
            <path
               id="j_fi0KuUMc"
               fill="#efc3a2"
               fill-opacity="1"
               d="m 29.860001,380.94699 c 4.822998,5.168 14.236999,4.17502 21.023998,-2.21399 6.789001,-6.38901 8.382,-15.75799 3.558002,-20.92499 0,0 -24.582,23.13898 -24.582,23.13898 z" />
          </g>
          <g
             id="-HSaZ60llD"
             opacity="1">
            <path
               id="ROVE7SAJsb"
               fill="#f0d5c1"
               fill-opacity="1"
               d="m 54.442001,357.80801 c -4.823002,-5.168 -14.236,-4.17401 -21.024002,2.215 -6.788,6.38898 -8.382,15.758 -3.557998,20.92398 0,0 0,0 0,0 0,0 24.582,-23.13898 24.582,-23.13898 0,0 0,0 0,0 z" />
          </g>
        </g>
      </g>
      <g
         id="fCnsPYLI3E"
         opacity="1">
        <g
           id="uGZWAGKZtz"
           opacity="1">
          <g
             id="mcBFheclLB"
             opacity="1">
            <path
               id="pdx1Cgpb6D"
               fill="#efc3a2"
               fill-opacity="1"
               d="m 84.872002,380.94699 c -4.822998,5.168 -14.237,4.17502 -21.025002,-2.21399 -6.789001,-6.38901 -8.381,-15.75799 -3.556999,-20.92499 0,0 24.582001,23.13898 24.582001,23.13898 z" />
          </g>
          <g
             id="rKXBnTJyO4"
             opacity="1">
            <path
               id="0r1rb5x5X3"
               fill="#f0d5c1"
               fill-opacity="1"
               d="m 60.290001,357.80801 c 4.822998,-5.168 14.236,-4.17401 21.024002,2.215 6.787994,6.38898 8.381996,15.758 3.557999,20.92398 0,0 0,0 0,0 0,0 -24.582001,-23.13898 -24.582001,-23.13898 0,0 0,0 0,0 z" />
          </g>
        </g>
      </g>
      <g
         id="7DAmUjS-Cw"
         opacity="1">
        <g
           id="iumvdiJswz"
           opacity="1">
          <path
             id="2IND5k9ZHn"
             fill="#211f1f"
             fill-opacity="1"
             d="m 43.276001,357.35001 c 0,6.41 10.409,10.90698 14.191998,11.27499 0,0 0,-18.216 0,-18.216 -7.880997,0.11599 -14.191998,3.17801 -14.191998,6.94101 z" />
        </g>
        <g
           id="kno5j3uiL4"
           opacity="1">
          <path
             id="BXJsi1Y-aV"
             fill="#000000"
             fill-opacity="1"
             d="m 57.928001,350.40399 c -0.155002,0 -0.307003,0.003 -0.460002,0.005 0,0 0,18.216 0,18.216 0.166999,0.016 0.319999,0.024 0.460002,0.024 3.793,0 14.653,-4.50699 14.653,-11.29898 0,-3.83701 -6.561004,-6.94602 -14.653,-6.94602 z" />
        </g>
      </g>
      <g
         id="OBCoiLGUsS"
         opacity="1">
        <g
           id="f39FlyH5Jf"
           opacity="1">
          <g
             id="wwHF9_Ll48"
             opacity="1">
            <path
               id="ogWPfNj_d1"
               fill="#5c2d12"
               fill-opacity="1"
               d="m 45.287998,328.63501 c -0.674,1.884 -0.849998,-1.983 -3.448997,-2.91303 -2.600003,-0.93099 -4.333,0.41501 -5.964001,-0.45697 -1.765999,-0.94302 3.327999,-2.65701 5.928001,-1.72702 2.599999,0.93 4.16,3.21201 3.484997,5.09702 z" />
          </g>
          <g
             id="3kuZGXNVg0"
             opacity="1">
            <g
               id="XpZU1nVrHX"
               opacity="1">
              <path
                 id="dbMC-4HqNH"
                 fill="#211f1f"
                 fill-opacity="1"
                 d="m 44.654999,328.95001 c 0,-2.18301 -1.772,-3.95102 -3.954998,-3.95102 -2.184002,0 -3.954003,1.76801 -3.954003,3.95102 0,2.181 1.770001,3.95099 3.954003,3.95099 2.182998,0 3.954998,-1.76999 3.954998,-3.95099 z" />
            </g>
            <g
               id="fUPNJVmTzV"
               opacity="1">
              <path
                 id="mSZvvaVISa"
                 fill="#ffffff"
                 fill-opacity="1"
                 d="m 40.154999,326.91 c 0,-0.488 -0.397,-0.88101 -0.883999,-0.88101 -0.484001,0 -0.882,0.39301 -0.882,0.88101 0,0.487 0.397999,0.88199 0.882,0.88199 0.486999,0 0.883999,-0.39499 0.883999,-0.88199 z" />
            </g>
          </g>
        </g>
        <g
           id="bVjdRUtluG"
           opacity="1">
          <g
             id="AMbZgBZRyr"
             opacity="1">
            <path
               id="w3lfWMzexP"
               fill="#5c2d12"
               fill-opacity="1"
               d="m 70.568001,328.63501 c 0.674995,1.884 0.849998,-1.983 3.449997,-2.91303 2.599998,-0.93099 4.332,0.41501 5.964004,-0.45697 1.765,-0.94302 -3.329002,-2.65701 -5.929001,-1.72702 -2.598999,0.93 -4.160003,3.21201 -3.485,5.09702 z" />
          </g>
          <g
             id="RZ1GMRjlLQ"
             opacity="1">
            <g
               id="g_qEhu42-2"
               opacity="1">
              <path
                 id="Ct_IlVoiJR"
                 fill="#211f1f"
                 fill-opacity="1"
                 d="m 71.202003,328.95001 c 0,-2.18301 1.770997,-3.95102 3.953995,-3.95102 2.183998,0 3.954003,1.76801 3.954003,3.95102 0,2.181 -1.770005,3.95099 -3.954003,3.95099 -2.182998,0 -3.953995,-1.76999 -3.953995,-3.95099 z" />
            </g>
            <g
               id="zHTxBYX5YT"
               opacity="1">
              <path
                 id="z-SoUPPJSp"
                 fill="#ffffff"
                 fill-opacity="1"
                 d="m 75.702003,326.91 c 0,-0.488 0.395997,-0.88101 0.882996,-0.88101 0.484001,0 0.882004,0.39301 0.882004,0.88101 0,0.487 -0.398003,0.88199 -0.882004,0.88199 -0.486999,0 -0.882996,-0.39499 -0.882996,-0.88199 z" />
            </g>
          </g>
        </g>
      </g>
      <g
         id="X59yW2zpCz"
         opacity="1">
        <g
           id="MMM6jVekgC"
           opacity="1">
          <path
             id="Q61DU5mwWV"
             fill="#5c2d12"
             fill-opacity="1"
             d="m 43.110001,317.64301 c 0,1.26498 -1.688,2.29 -3.771,2.29 -2.083,0 -3.772,-1.02502 -3.772,-2.29 0,-1.26502 1.689,-2.29001 3.772,-2.29001 2.083,0 3.771,1.02499 3.771,2.29001 z" />
        </g>
        <g
           id="jA0vcbtviL"
           opacity="1">
          <path
             id="cCnSzWHrOX"
             fill="#5c2d12"
             fill-opacity="1"
             d="m 80.290001,317.64301 c 0,1.26498 -1.689003,2.29 -3.772003,2.29 -2.083,0 -3.771996,-1.02502 -3.771996,-2.29 0,-1.26502 1.688996,-2.29001 3.771996,-2.29001 2.083,0 3.772003,1.02499 3.772003,2.29001 z" />
        </g>
      </g>
    </g>
  </g>
</svg>
