<svg width="25" height="25" viewBox="0 0 25 25" fill="none" xmlns="http://www.w3.org/2000/svg">
<path d="M10.3104 0.854248H14.6893C16.162 0.854248 17.3212 0.854248 18.2547 0.93129C19.2043 1.00833 19.9998 1.16958 20.7218 1.53687C21.9021 2.13815 22.8618 3.09777 23.463 4.27812C23.8303 5.00016 23.9916 5.79566 24.0686 6.74704C24.1457 7.67871 24.1457 8.83971 24.1457 10.3107V14.6895C24.1457 16.1622 24.1457 17.3215 24.0686 18.2549C23.9916 19.2045 23.8303 20 23.463 20.722C22.8618 21.9024 21.9021 22.862 20.7218 23.4633C19.9998 23.8306 19.2043 23.9918 18.2529 24.0689C17.3212 24.1459 16.1602 24.1459 14.6893 24.1459H8.23925C5.0465 24.1459 3.44655 20.2867 5.70405 18.0292L14.3685 9.36466H9.81234C9.57475 9.36466 9.34689 9.27028 9.17889 9.10228C9.01089 8.93428 8.9165 8.70642 8.9165 8.46883C8.9165 8.23124 9.01089 8.00338 9.17889 7.83538C9.34689 7.66738 9.57475 7.573 9.81234 7.573H16.5311C16.7687 7.573 16.9965 7.66738 17.1645 7.83538C17.3325 8.00338 17.4269 8.23124 17.4269 8.46883V15.1876C17.4269 15.4252 17.3325 15.653 17.1645 15.821C16.9965 15.989 16.7687 16.0834 16.5311 16.0834C16.2935 16.0834 16.0656 15.989 15.8976 15.821C15.7296 15.653 15.6353 15.4252 15.6353 15.1876V10.6314L6.97075 19.2959C5.842 20.4246 6.64109 22.3542 8.23746 22.3542H14.6498C16.1692 22.3542 17.2567 22.3542 18.1078 22.2826C18.948 22.2145 19.4802 22.0855 19.9084 21.8651C20.7507 21.4358 21.4355 20.7509 21.8649 19.9086C22.0835 19.4804 22.2143 18.9483 22.2841 18.108C22.354 17.2552 22.354 16.1694 22.354 14.6501V10.3501C22.354 8.83075 22.354 7.74321 22.2823 6.89216C22.2143 6.05187 22.0853 5.51975 21.8649 5.09154C21.4358 4.24857 20.751 3.56306 19.9084 3.13325C19.4802 2.91646 18.948 2.78566 18.1078 2.71579C17.2549 2.64591 16.1692 2.64591 14.6498 2.64591H10.3498C8.8305 2.64591 7.74296 2.64591 6.89192 2.71758C6.05163 2.78566 5.5195 2.91466 5.0913 3.13325C4.24805 3.56276 3.56251 4.2483 3.133 5.09154C2.91621 5.51975 2.78542 6.05187 2.71555 6.89216C2.64567 7.74321 2.64567 8.83075 2.64567 10.3501V15.1876C2.64567 15.4252 2.55129 15.653 2.38329 15.821C2.21529 15.989 1.98743 16.0834 1.74984 16.0834C1.51225 16.0834 1.28439 15.989 1.11639 15.821C0.948386 15.653 0.854004 15.4252 0.854004 15.1876V10.3107C0.854004 8.83971 0.854004 7.6805 0.931046 6.74525C1.00809 5.79566 1.16934 5.00016 1.53663 4.27812C2.13791 3.09777 3.09753 2.13815 4.27788 1.53687C4.99992 1.16958 5.79542 1.00833 6.74679 0.93129C7.67846 0.854248 8.83946 0.854248 10.3104 0.854248Z" fill="#1E1E1E"/>
</svg>
